#!OML:ASF X:\für Bonn\!DataBase\2005_08_10_Bjorn_Final\c3d\bjorn.ASF
:FULLY-SPECIFIED
:DEGREES
137
root -21.4664 19.4448 0.240068 -215.438 -88.6208 -139.94
lowerback -13.452 5.0607 -3.11296
upperback 3.71932 7.87039 -5.77333
thorax 12.0958 3.70042 -2.73088
lowerneck -4.09508 -6.71822 5.30824
upperneck 19.5355 -10.3643 0.907858
head 6.41483 -4.7296 -1.27305
rclavicle 3.53837e-014 2.22639e-014
rhumerus 20.2174 -4.11677 -55.7755
rradius 90.6152
rwrist -33.1991
rhand -11.3482 6.87318
rfingers 7.12502
rthumb 14.685 -22.5868
lclavicle 3.53837e-014 2.22639e-014
lhumerus -28.2296 30.5671 67.6353
lradius 12.2711
lwrist -55.0609
lhand -15.1681 -5.53228
lfingers 7.12502
lthumb 11.0026 24.1594
rfemur -12.3531 -13.6833 17.4059
rtibia 24.8864
rfoot -8.48179 20.2641
rtoes 4.41697
lfemur -11.2169 15.4267 -16.5366
ltibia 24.406
lfoot -9.68714 -15.6907
ltoes 1.51171
138
root -21.468 19.445 0.241161 -213.051 -88.5711 -142.312
lowerback -13.4723 4.97723 -3.06529
upperback 3.75473 7.74834 -5.69548
thorax 12.1366 3.64297 -2.69855
lowerneck -4.10897 -6.62145 5.26744
upperneck 19.7225 -10.2527 0.926516
head 6.48272 -4.67327 -1.26105
rclavicle -4.37326e-015 2.22639e-014
rhumerus 19.2978 -4.44391 -56.3356
rradius 92.1407
rwrist -33.2024
rhand -11.6264 6.89469
rfingers 7.12502
rthumb 14.417 -22.5846
lclavicle -4.37326e-015 2.22639e-014
lhumerus -28.2858 30.3536 67.7768
lradius 12.3228
lwrist -54.7165
lhand -15.1773 -5.55694
lfingers 7.12502
lthumb 10.9937 24.1352
rfemur -12.3752 -13.6107 17.388
rtibia 24.8869
rfoot -8.46274 20.2615
rtoes 4.51773
lfemur -11.2117 15.4874 -16.5571
ltibia 24.3924
lfoot -9.67309 -15.7213
ltoes 1.61388
139
root -21.4689 19.4451 0.241419 -211.6 -88.5258 -143.754
lowerback -13.4599 4.8869 -3.01779
upperback 3.7814 7.61333 -5.61125
thorax 12.1463 3.57993 -2.66489
lowerneck -4.09805 -6.53125 5.26132
upperneck 19.895 -10.1397 0.887783
head 6.53663 -4.61927 -1.27041
rclavicle -2.10712e-014 2.38542e-014
rhumerus 18.3902 -4.75511 -56.9067
rradius 93.6154
rwrist -33.2282
rhand -11.8057 6.92902
rfingers 7.12502
rthumb 14.2442 -22.5625
lclavicle -2.10712e-014 2.38542e-014
lhumerus -28.354 30.0513 67.9473
lradius 12.3888
lwrist -54.2585
lhand -15.1908 -5.62365
lfingers 7.12502
lthumb 10.9807 24.0692
rfemur -12.3862 -13.5659 17.3858
rtibia 24.8893
rfoot -8.46148 20.2725
rtoes 4.60638
lfemur -11.205 15.5346 -16.5582
ltibia 24.3773
lfoot -9.64761 -15.7362
ltoes 1.69966
140
root -21.4703 19.4447 0.242138 -209.351 -88.4666 -145.987
lowerback -13.4798 4.80058 -2.98002
upperback 3.81526 7.48759 -5.51982
thorax 12.1817 3.51956 -2.61322
lowerneck -4.11081 -6.43409 5.21516
upperneck 20.0853 -10.0178 0.860173
head 6.6031 -4.56192 -1.27101
rclavicle 1.59028e-014 3.81667e-014
rhumerus 17.5128 -5.05016 -57.4426
rradius 95.0144
rwrist -33.2461
rhand -11.9143 6.97876
rfingers 7.12502
rthumb 14.1396 -22.5201
lclavicle 1.59028e-014 3.81667e-014
lhumerus -28.4218 29.8326 68.1182
lradius 12.4537
lwrist -53.8873
lhand -15.1878 -5.67632
lfingers 7.12502
lthumb 10.9836 24.0163
rfemur -12.4145 -13.5383 17.3685
rtibia 24.8924
rfoot -8.42492 20.326
rtoes 4.68142
lfemur -11.2 15.6025 -16.578
ltibia 24.3619
lfoot -9.61657 -15.7654
ltoes 1.87574
141
root -21.4719 19.4448 0.242238 -207.556 -88.4182 -147.782
lowerback -13.4877 4.70428 -2.95419
upperback 3.86236 7.3492 -5.41356
thorax 12.221 3.4517 -2.54241
lowerneck -4.12727 -6.3355 5.10383
upperneck 20.2664 -9.89466 0.876836
head 6.6729 -4.50529 -1.24732
rclavicle -2.50469e-014 4.92986e-014
rhumerus 16.6646 -5.34023 -57.967
rradius 96.3773
rwrist -33.2223
rhand -11.9552 6.98329
rfingers 7.12502
rthumb 14.1001 -22.5183
lclavicle -2.50469e-014 4.92986e-014
lhumerus -28.5118 29.796 68.231
lradius 12.4923
lwrist -53.7234
lhand -15.2407 -5.79349
lfingers 7.12502
lthumb 10.9326 23.9019
rfemur -12.4236 -13.5366 17.3524
rtibia 24.895
rfoot -8.41935 20.3763
rtoes 4.68106
lfemur -11.182 15.6549 -16.5918
ltibia 24.3467
lfoot -9.59827 -15.7959
ltoes 1.97009
142
root -21.4731 19.445 0.242231 -205.431 -88.3499 -149.891
lowerback -13.4937 4.61205 -2.92416
upperback 3.88663 7.21458 -5.32008
thorax 12.2361 3.38687 -2.4876
lowerneck -4.09703 -6.23984 5.05193
upperneck 20.4251 -9.76883 0.84856
head 6.72206 -4.44863 -1.24393
rclavicle -6.40087e-014 4.92986e-014
rhumerus 15.8352 -5.60308 -58.5158
rradius 97.6622
rwrist -33.1604
rhand -11.9507 6.90425
rfingers 7.12502
rthumb 14.1045 -22.5971
lclavicle -6.40087e-014 4.92986e-014
lhumerus -28.5973 29.5472 68.4015
lradius 12.5652
lwrist -53.3307
lhand -15.2492 -5.86287
lfingers 7.12502
lthumb 10.9244 23.8329
rfemur -12.4537 -13.474 17.3371
rtibia 24.9012
rfoot -8.39139 20.3955
rtoes 4.81059
lfemur -11.1757 15.7311 -16.6139
ltibia 24.3294
lfoot -9.58428 -15.7966
ltoes 1.94439
143
root -21.4748 19.4454 0.242335 -204.267 -88.2925 -151.04
lowerback -13.5073 4.50697 -2.87219
upperback 3.91938 7.05922 -5.21654
thorax 12.2662 3.31341 -2.43822
lowerneck -4.11896 -6.13058 4.94032
upperneck 20.6302 -9.62878 0.841354
head 6.79947 -4.38572 -1.22712
rclavicle 9.30312e-014 -5.24792e-014
rhumerus 15.0233 -5.81938 -59.0186
rradius 98.9315
rwrist -33.1145
rhand -11.9275 6.73332
rfingers 7.12502
rthumb 14.1269 -22.7664
lclavicle 9.30312e-014 -5.24792e-014
lhumerus -28.6743 29.33 68.577
lradius 12.631
lwrist -53.0026
lhand -15.2775 -5.96324
lfingers 7.12502
lthumb 10.8971 23.734
rfemur -12.4793 -13.4285 17.3372
rtibia 24.9088
rfoot -8.39918 20.4168
rtoes 4.81411
lfemur -11.1722 15.7865 -16.6169
ltibia 24.3093
lfoot -9.5678 -15.8134
ltoes 1.99769
144
root -21.4761 19.4454 0.242232 -202.518 -88.2271 -152.781
lowerback -13.5049 4.40558 -2.844
upperback 3.94048 6.91055 -5.11093
thorax 12.2707 3.24159 -2.37309
lowerneck -4.04787 -6.03367 4.83654
upperneck 20.762 -9.49336 0.825365
head 6.83589 -4.32893 -1.20839
rclavicle -9.93923e-015 1.43125e-014
rhumerus 14.1934 -5.9852 -59.4688
rradius 100.151
rwrist -33.0333
rhand -11.9694 6.59336
rfingers 7.12502
rthumb 14.0865 -22.9092
lclavicle -9.93923e-015 1.43125e-014
lhumerus -28.7634 29.0807 68.7737
lradius 12.7124
lwrist -52.6243
lhand -15.2975 -5.98623
lfingers 7.12502
lthumb 10.8778 23.712
rfemur -12.4994 -13.352 17.324
rtibia 24.9169
rfoot -8.40806 20.4079
rtoes 4.79707
lfemur -11.1557 15.856 -16.6323
ltibia 24.2898
lfoot -9.549 -15.8463
ltoes 2.08137
145
root -21.4775 19.4456 0.242448 -200.861 -88.1526 -154.422
lowerback -13.5206 4.30763 -2.80436
upperback 3.97695 6.76718 -5.01003
thorax 12.3064 3.17275 -2.31684
lowerneck -4.08397 -5.92578 4.74053
upperneck 20.9656 -9.35461 0.805921
head 6.91387 -4.2668 -1.19804
rclavicle 8.38871e-014 -5.725e-014
rhumerus 13.3618 -6.14004 -59.8959
rradius 101.308
rwrist -32.8791
rhand -11.9796 6.53053
rfingers 7.12502
rthumb 14.0767 -22.9727
lclavicle 8.38871e-014 -5.725e-014
lhumerus -28.8267 28.8655 68.9767
lradius 12.8135
lwrist -52.3345
lhand -15.3014 -6.03814
lfingers 7.12502
lthumb 10.874 23.6603
rfemur -12.5272 -13.3233 17.3075
rtibia 24.9254
rfoot -8.36792 20.463
rtoes 4.93016
lfemur -11.1499 15.9309 -16.6544
ltibia 24.269
lfoot -9.55813 -15.847
ltoes 2.00758
146
root -21.479 19.4457 0.241935 -199.776 -88.08 -155.5
lowerback -13.5143 4.20403 -2.75197
upperback 4.00173 6.6115 -4.90819
thorax 12.3168 3.09967 -2.27122
lowerneck -4.0502 -5.81866 4.6365
upperneck 21.1153 -9.21151 0.803782
head 6.96351 -4.20465 -1.17618
rclavicle 1.35174e-014 -1.59028e-015
rhumerus 12.4838 -6.21201 -60.2887
rradius 102.418
rwrist -32.6392
rhand -12.0153 6.53915
rfingers 7.12502
rthumb 14.0422 -22.9665
lclavicle 1.35174e-014 -1.59028e-015
lhumerus -28.8994 28.593 69.1846
lradius 12.9131
lwrist -51.9594
lhand -15.3071 -6.07237
lfingers 7.12502
lthumb 10.8686 23.6264
rfemur -12.5534 -13.3162 17.3066
rtibia 24.9419
rfoot -8.35391 20.5362
rtoes 4.96811
lfemur -11.1294 15.9994 -16.6519
ltibia 24.244
lfoot -9.51736 -15.8608
ltoes 2.20547
147
root -21.4805 19.4459 0.242158 -197.972 -88.0073 -157.295
lowerback -13.5142 4.10528 -2.70717
upperback 4.02677 6.46557 -4.82545
thorax 12.3337 3.03113 -2.23974
lowerneck -4.02611 -5.71487 4.56232
upperneck 21.2859 -9.07257 0.771816
head 7.01865 -4.14446 -1.16954
rclavicle -4.05521e-014 1.43125e-014
rhumerus 11.6074 -6.26939 -60.6537
rradius 103.437
rwrist -32.2761
rhand -12.0124 6.63336
rfingers 7.12502
rthumb 14.045 -22.8721
lclavicle -4.05521e-014 1.43125e-014
lhumerus -28.9474 28.2717 69.4036
lradius 13.0092
lwrist -51.5984
lhand -15.3152 -6.08371
lfingers 7.12502
lthumb 10.8608 23.6154
rfemur -12.5807 -13.297 17.2733
rtibia 24.9559
rfoot -8.3073 20.6011
rtoes 5.10975
lfemur -11.113 16.0752 -16.6838
ltibia 24.2188
lfoot -9.49577 -15.8901
ltoes 2.2852
148
root -21.4817 19.4453 0.241533 -196.677 -87.9361 -158.582
lowerback -13.5151 4.00144 -2.67519
upperback 4.05857 6.31344 -4.71952
thorax 12.3543 2.95767 -2.17694
lowerneck -4.02092 -5.61276 4.45736
upperneck 21.4507 -8.93196 0.738796
head 7.07644 -4.08557 -1.15863
rclavicle 1.88845e-014 -1.11319e-014
rhumerus 10.7388 -6.25368 -60.9287
rradius 104.388
rwrist -31.8658
rhand -12.0666 6.82646
rfingers 7.12502
rthumb 13.9928 -22.6826
lclavicle 1.88845e-014 -1.11319e-014
lhumerus -29.004 28.0384 69.6383
lradius 13.1228
lwrist -51.2695
lhand -15.3181 -6.1086
lfingers 7.12502
lthumb 10.858 23.5907
rfemur -12.6066 -13.2653 17.2614
rtibia 24.9702
rfoot -8.31345 20.6375
rtoes 5.10266
lfemur -11.0955 16.1444 -16.7008
ltibia 24.1974
lfoot -9.50105 -15.8971
ltoes 2.23503
